<?xml version="1.0" encoding="UTF-8" standalone="no"?>
<!DOCTYPE svg PUBLIC "-//W3C//DTD SVG 1.1//EN" "http://www.w3.org/Graphics/SVG/1.1/DTD/svg11.dtd">
<svg width="100%" height="100%" viewBox="0 0 1749 1241" version="1.1" xmlns="http://www.w3.org/2000/svg" xmlns:xlink="http://www.w3.org/1999/xlink" xml:space="preserve" xmlns:serif="http://www.serif.com/" style="fill-rule:evenodd;clip-rule:evenodd;stroke-linejoin:round;stroke-miterlimit:2;">
    <g transform="matrix(1,0,0,1,-544.408,-382.317)">
        <g transform="matrix(600,0,0,600,753.923,1205.59)">
            <path d="M0.456,-0L0.456,-0.057C0.413,-0.047 0.37,-0.041 0.286,-0.041L0.161,-0.041L0.161,-0.625L0.08,-0.625L0.08,-0L0.456,-0Z" style="fill:rgb(255,255,255);fill-rule:nonzero;"/>
        </g>
        <g transform="matrix(600,0,0,600,1045.52,1205.59)">
            <path d="M0.261,0.015C0.401,0.015 0.49,-0.091 0.49,-0.234C0.49,-0.376 0.404,-0.473 0.269,-0.473C0.128,-0.473 0.04,-0.367 0.04,-0.224C0.04,-0.082 0.125,0.015 0.261,0.015ZM0.268,-0.025C0.189,-0.025 0.118,-0.092 0.118,-0.236C0.118,-0.362 0.18,-0.433 0.261,-0.433C0.34,-0.433 0.412,-0.366 0.412,-0.222C0.412,-0.096 0.349,-0.025 0.268,-0.025Z" style="fill:rgb(255,255,255);fill-rule:nonzero;"/>
        </g>
        <g transform="matrix(600,0,0,600,1363.52,1205.59)">
            <path d="M0.433,-0L0.433,-0.458L0.361,-0.458L0.361,-0.118C0.326,-0.077 0.276,-0.043 0.232,-0.043C0.171,-0.043 0.138,-0.074 0.138,-0.161L0.138,-0.458L0.066,-0.458L0.066,-0.133C0.066,-0.044 0.109,0.015 0.197,0.015C0.255,0.015 0.306,-0.012 0.356,-0.063L0.361,-0.063L0.361,-0L0.433,-0Z" style="fill:rgb(255,255,255);fill-rule:nonzero;"/>
        </g>
        <g transform="matrix(600,0,0,600,1666.52,1205.59)">
            <path d="M0.108,-0.561C0.137,-0.561 0.16,-0.586 0.16,-0.616C0.16,-0.647 0.137,-0.672 0.108,-0.672C0.079,-0.672 0.056,-0.647 0.056,-0.616C0.056,-0.586 0.079,-0.561 0.108,-0.561ZM0.144,-0L0.144,-0.47L0.072,-0.448L0.072,-0L0.144,-0Z" style="fill:rgb(255,255,255);fill-rule:nonzero;"/>
        </g>
        <g transform="matrix(600,0,0,600,1796.12,1205.59)">
            <path d="M0.391,-0.072C0.359,-0.045 0.323,-0.03 0.282,-0.03C0.18,-0.03 0.118,-0.116 0.118,-0.229C0.118,-0.236 0.118,-0.245 0.119,-0.253L0.435,-0.253C0.437,-0.267 0.438,-0.287 0.438,-0.3C0.438,-0.392 0.375,-0.473 0.262,-0.473C0.134,-0.473 0.04,-0.367 0.04,-0.224C0.04,-0.082 0.133,0.015 0.259,0.015C0.325,0.015 0.374,-0.005 0.412,-0.037L0.391,-0.072ZM0.123,-0.291C0.142,-0.381 0.199,-0.433 0.256,-0.433C0.321,-0.433 0.362,-0.382 0.362,-0.291L0.123,-0.291Z" style="fill:rgb(255,255,255);fill-rule:nonzero;"/>
        </g>
    </g>
</svg>
